<!-- Generator: Adobe Illustrator 19.2.1, SVG Export Plug-In  -->
<svg version="1.1"
	 xmlns="http://www.w3.org/2000/svg" xmlns:xlink="http://www.w3.org/1999/xlink" xmlns:a="http://ns.adobe.com/AdobeSVGViewerExtensions/3.0/"
	 x="0px" y="0px" width="450.717px" height="77.841px" viewBox="0 0 450.717 77.841"
	 style="enable-background:new 0 0 450.717 77.841;" xml:space="preserve">
<style type="text/css">
	.st0{fill:#46678A;}
	.st1{fill:#1F4E73;}
</style>
<defs>
</defs>
<g>
	<path class="st0" d="M95.835,56.013h3.748v8.515h9.745v-8.515h3.748v21.408h-3.748v-9.655h-9.745v9.655h-3.748V56.013z"/>
	<path class="st0" d="M131.003,77.421h-3.358v-2.159h-0.06c-0.84,1.56-2.699,2.579-4.408,2.579c-4.048,0-5.787-2.039-5.787-6.087
		V61.92h3.418v9.504c0,2.729,1.109,3.719,2.968,3.719c2.848,0,3.808-1.83,3.808-4.229V61.92h3.418V77.421z"/>
	<path class="st0" d="M134.898,61.92h3.238v2.158h0.09c1.02-1.529,2.309-2.578,4.768-2.578c1.889,0,3.658,0.809,4.348,2.578
		c1.139-1.589,2.608-2.578,4.857-2.578c3.268,0,5.187,1.439,5.187,5.217v10.704h-3.418v-9.056c0-2.458-0.15-4.167-2.818-4.167
		c-2.309,0-3.298,1.529-3.298,4.138v9.085h-3.418v-9.954c0-2.129-0.66-3.269-2.729-3.269c-1.769,0-3.388,1.438-3.388,4.018v9.205
		h-3.418V61.92z"/>
	<path class="st0" d="M174.264,73.973c0,0.84,0.18,1.17,0.81,1.17c0.21,0,0.48,0,0.84-0.061v2.369c-0.51,0.18-1.589,0.39-2.159,0.39
		c-1.379,0-2.369-0.479-2.638-1.89c-1.35,1.32-3.538,1.89-5.367,1.89c-2.789,0-5.307-1.499-5.307-4.528
		c0-3.867,3.088-4.497,5.967-4.826c2.458-0.45,4.647-0.18,4.647-2.189c0-1.77-1.829-2.099-3.208-2.099
		c-1.919,0-3.268,0.779-3.418,2.458h-3.418c0.24-3.987,3.628-5.156,7.046-5.156c3.028,0,6.207,1.229,6.207,4.497V73.973z
		 M170.846,69.655c-1.049,0.689-2.699,0.659-4.198,0.929c-1.469,0.24-2.789,0.78-2.789,2.579c0,1.529,1.949,1.979,3.148,1.979
		c1.499,0,3.838-0.779,3.838-2.939V69.655z"/>
	<path class="st0" d="M178.249,61.92h3.238v2.278l0.06,0.06c1.02-1.709,2.789-2.758,4.827-2.758c3.358,0,5.487,1.799,5.487,5.277
		v10.644h-3.418v-9.745c-0.06-2.428-1.02-3.478-3.029-3.478c-2.278,0-3.748,1.799-3.748,4.077v9.146h-3.418V61.92z"/>
	<path class="st0" d="M217.375,73.973c0,0.84,0.181,1.17,0.81,1.17c0.21,0,0.48,0,0.84-0.061v2.369
		c-0.51,0.18-1.589,0.39-2.159,0.39c-1.379,0-2.368-0.479-2.638-1.89c-1.35,1.32-3.538,1.89-5.367,1.89
		c-2.789,0-5.308-1.499-5.308-4.528c0-3.867,3.089-4.497,5.967-4.826c2.459-0.45,4.647-0.18,4.647-2.189
		c0-1.77-1.829-2.099-3.208-2.099c-1.919,0-3.269,0.779-3.418,2.458h-3.418c0.24-3.987,3.628-5.156,7.046-5.156
		c3.028,0,6.206,1.229,6.206,4.497V73.973z M213.957,69.655c-1.049,0.689-2.698,0.659-4.197,0.929
		c-1.47,0.24-2.789,0.78-2.789,2.579c0,1.529,1.949,1.979,3.148,1.979c1.499,0,3.838-0.779,3.838-2.939V69.655z"/>
	<path class="st0" d="M235.963,77.421h-3.238v-2.099h-0.06c-0.899,1.77-2.849,2.519-4.797,2.519c-4.888,0-7.257-3.628-7.257-8.275
		c0-5.606,3.328-8.065,6.717-8.065c1.949,0,4.107,0.719,5.157,2.428h0.06v-7.915h3.418V77.421z M228.317,75.143
		c3.059,0,4.348-2.789,4.348-5.487c0-3.419-1.649-5.457-4.288-5.457c-3.208,0-4.347,2.849-4.347,5.637
		C224.03,72.504,225.349,75.143,228.317,75.143z"/>
	<path class="st0" d="M254.581,77.421h-3.238v-2.099h-0.06c-0.9,1.77-2.849,2.519-4.798,2.519c-4.888,0-7.256-3.628-7.256-8.275
		c0-5.606,3.328-8.065,6.716-8.065c1.949,0,4.108,0.719,5.157,2.428h0.061v-7.915h3.418V77.421z M246.936,75.143
		c3.058,0,4.348-2.789,4.348-5.487c0-3.419-1.649-5.457-4.288-5.457c-3.208,0-4.348,2.849-4.348,5.637
		C242.647,72.504,243.967,75.143,246.936,75.143z"/>
	<path class="st0" d="M261.265,70.555c0,2.429,1.319,4.588,4.167,4.588c1.979,0,3.179-0.87,3.778-2.579h3.238
		c-0.75,3.388-3.628,5.277-7.017,5.277c-4.856,0-7.585-3.388-7.585-8.155c0-4.408,2.878-8.186,7.495-8.186
		c4.888,0,7.886,4.407,7.316,9.055H261.265z M269.24,68.307c-0.12-2.16-1.589-4.108-3.898-4.108c-2.368,0-3.987,1.799-4.077,4.108
		H269.24z"/>
	<path class="st0" d="M290.167,77.421h-3.238v-2.099h-0.061c-0.899,1.77-2.849,2.519-4.797,2.519c-4.888,0-7.256-3.628-7.256-8.275
		c0-5.606,3.328-8.065,6.716-8.065c1.949,0,4.107,0.719,5.157,2.428h0.06v-7.915h3.419V77.421z M282.52,75.143
		c3.059,0,4.348-2.789,4.348-5.487c0-3.419-1.648-5.457-4.287-5.457c-3.209,0-4.348,2.849-4.348,5.637
		C278.233,72.504,279.553,75.143,282.52,75.143z"/>
	<path class="st0" d="M301.287,61.92h3.719l3.928,11.902h0.06l3.778-11.902h3.538l-5.547,15.501h-3.838L301.287,61.92z"/>
	<path class="st0" d="M331.659,73.973c0,0.84,0.18,1.17,0.81,1.17c0.21,0,0.479,0,0.839-0.061v2.369
		c-0.51,0.18-1.589,0.39-2.158,0.39c-1.38,0-2.369-0.479-2.639-1.89c-1.35,1.32-3.538,1.89-5.367,1.89
		c-2.788,0-5.308-1.499-5.308-4.528c0-3.867,3.089-4.497,5.967-4.826c2.459-0.45,4.647-0.18,4.647-2.189
		c0-1.77-1.828-2.099-3.208-2.099c-1.919,0-3.268,0.779-3.418,2.458h-3.418c0.239-3.987,3.628-5.156,7.046-5.156
		c3.028,0,6.207,1.229,6.207,4.497V73.973z M328.24,69.655c-1.049,0.689-2.698,0.659-4.197,0.929
		c-1.469,0.24-2.788,0.78-2.788,2.579c0,1.529,1.948,1.979,3.147,1.979c1.5,0,3.838-0.779,3.838-2.939V69.655z"/>
	<path class="st0" d="M335.734,56.013h3.418v21.408h-3.418V56.013z"/>
	<path class="st0" d="M356.782,77.421h-3.357v-2.159h-0.061c-0.839,1.56-2.698,2.579-4.407,2.579c-4.048,0-5.787-2.039-5.787-6.087
		V61.92h3.418v9.504c0,2.729,1.109,3.719,2.969,3.719c2.849,0,3.808-1.83,3.808-4.229V61.92h3.418V77.421z"/>
	<path class="st0" d="M363.347,70.555c0,2.429,1.319,4.588,4.167,4.588c1.979,0,3.179-0.87,3.778-2.579h3.238
		c-0.75,3.388-3.628,5.277-7.017,5.277c-4.856,0-7.585-3.388-7.585-8.155c0-4.408,2.878-8.186,7.495-8.186
		c4.888,0,7.886,4.407,7.316,9.055H363.347z M371.322,68.307c-0.12-2.16-1.589-4.108-3.898-4.108c-2.368,0-3.987,1.799-4.077,4.108
		H371.322z"/>
</g>
<g>
	<path class="st1" d="M114.852,0.885v7.461h-9.864v37.688h-9.105V8.346h-9.864V0.885H114.852z"/>
	<path class="st1" d="M130.025,0.885h11.256l11.951,45.148h-9.485l-2.087-9.549h-12.014l-2.087,9.549h-9.485L130.025,0.885z
		 M131.227,29.023h8.853l-4.363-20.298h-0.127L131.227,29.023z"/>
	<path class="st1" d="M162.334,46.033V0.885h9.105v37.687h16.124v7.462H162.334z"/>
	<path class="st1" d="M222.781,0.885v7.461h-16.123v10.623h15.176v7.462h-15.176v12.141h16.756v7.462h-25.862V0.885H222.781z"/>
	<path class="st1" d="M244.404,0.885l11.002,30.921h0.127V0.885h8.346v45.148H253.51l-11.129-31.617h-0.127v31.617h-8.346V0.885
		H244.404z"/>
	<path class="st1" d="M302.574,0.885v7.461h-9.863v37.688h-9.105V8.346h-9.865V0.885H302.574z"/>
	<path class="st1" d="M332.102,12.583c0-4.743-1.707-8.03-7.02-8.03c-4.678,0-7.461,2.529-7.461,7.334
		c0,12.71,21.311,5.122,21.311,21.626c0,10.434-7.652,13.405-14.039,13.405c-10.559,0-13.658-5.438-13.658-15.049h5.564
		c0,5.059,0.316,10.496,8.475,10.496c4.426,0,7.84-3.162,7.84-7.967c0-12.773-21.309-5.375-21.309-21.942
		C311.805,8.283,313.574,0,325.02,0c8.6,0,12.52,4.299,12.646,12.583H332.102z"/>
	<path class="st1" d="M378.955,23.459c0,11.382-2.088,23.459-14.545,23.459c-12.455,0-14.543-12.077-14.543-23.459
		S351.955,0,364.41,0C376.867,0,378.955,12.077,378.955,23.459z M355.686,23.459c0,10.434,1.012,18.906,8.725,18.906
		c7.715,0,8.727-8.473,8.727-18.906s-1.012-18.906-8.727-18.906C356.697,4.553,355.686,13.025,355.686,23.459z"/>
	<path class="st1" d="M391.598,0.885h23.334v4.932h-17.77V19.98h16.758v4.933h-16.758v21.12h-5.564V0.885z"/>
	<path class="st1" d="M439.336,46.033h-5.564V5.816h-11.318V0.885h28.264v4.932h-11.381V46.033z"/>
</g>
<g>
	<path class="st1" d="M62.056,9.154c2.127,2.363,3.182,5.775,3.25,10.225h-6.248c0-5.324-1.917-9.017-7.881-9.017
		c-5.254,0-8.378,2.841-8.378,8.236c0,14.271,23.927,5.751,23.927,24.282c0,11.715-8.591,15.052-15.762,15.052
		c-11.856,0-15.335-6.106-15.335-16.898h6.248c0,5.68,0.355,11.786,9.514,11.786c4.97,0,8.804-3.55,8.804-8.946
		c0-11.28-14.795-8.556-21.115-15.927v2.415h-12.78v45.155h-0.19c3.834,1.288,7.934,1.996,12.201,1.996
		c21.158,0,38.31-17.151,38.31-38.31C76.619,27.019,70.923,16.17,62.056,9.154z"/>
	<path class="st1" d="M20.051,30.362H7.342v-5.538h29.875c-0.601-1.538-0.95-3.366-0.95-5.587c0-4.687,1.988-13.987,14.839-13.987
		c2.841,0,5.215,0.43,7.172,1.257c-5.815-3.559-12.651-5.612-19.968-5.612C17.152,0.894,0,18.047,0,39.204
		c0,14.547,8.108,27.2,20.051,33.686V30.362z"/>
</g>
</svg>