<?xml version="1.0" encoding="utf-8"?>
<!-- Generator: Adobe Illustrator 16.0.3, SVG Export Plug-In . SVG Version: 6.00 Build 0)  -->
<!DOCTYPE svg PUBLIC "-//W3C//DTD SVG 1.1//EN" "http://www.w3.org/Graphics/SVG/1.1/DTD/svg11.dtd">
<svg version="1.1" id="Calque_1" xmlns="http://www.w3.org/2000/svg" xmlns:xlink="http://www.w3.org/1999/xlink" x="0px" y="0px"
	 width="755px" height="330px" viewBox="0 0 755 330" enable-background="new 0 0 755 330" xml:space="preserve">
<g>
	<defs>
		<path id="SVGID_1_" d="M380.969,85.714c-35.514-33.567-47.675-45.729-47.675-45.729l-1.46,8.27l-15.567-10.216
			c0.001,0.001,61.297,71.514,65.675,67.135c14.181-15.014,55.944-63.243,118.7-92.918
			C442.752,32.202,420.373,40.959,380.969,85.714"/>
	</defs>
	<clipPath id="SVGID_2_">
		<use xlink:href="#SVGID_1_"  overflow="visible"/>
	</clipPath>
	
		<linearGradient id="SVGID_3_" gradientUnits="userSpaceOnUse" x1="-51" y1="466.0117" x2="-50" y2="466.0117" gradientTransform="matrix(184.376 0 0 184.376 9719.4248 -85860.4531)">
		<stop  offset="0" style="stop-color:#333296"/>
		<stop  offset="0.2796" style="stop-color:#333296"/>
		<stop  offset="0.3506" style="stop-color:#2B429F"/>
		<stop  offset="0.5397" style="stop-color:#1866B5"/>
		<stop  offset="0.7167" style="stop-color:#0B80C5"/>
		<stop  offset="0.8754" style="stop-color:#038FCF"/>
		<stop  offset="1" style="stop-color:#0095D2"/>
	</linearGradient>
	<rect x="316.267" y="12.256" clip-path="url(#SVGID_2_)" fill="url(#SVGID_3_)" width="184.375" height="97.297"/>
</g>
<g>
	<defs>
		<path id="SVGID_4_" d="M597.94,160.146c0,28.216,12.647,75.405,68.106,75.405s66.648-27.243,66.648-27.243
			c-9.73-5.352-25.299-15.566-25.299-15.566s-35.998,27.243-63.729,2.919s-5.312-68.573,20.919-70.053
			c20.109-1.136,36,3.405,44.757,11.188c7.297-3.892,24.812-14.108,24.812-14.108s-16.055-28.702-61.783-28.702
			C626.643,93.985,597.94,131.93,597.94,160.146 M403.347,128.525c0.001,0,10.216,7.784,20.433,18c0,0,31.622-48.648,79.783-48.648
			s61.101,36.518,59.837,61.783c-1.299,25.946-25.783,52.053-66.161,52.053s-72.485-39.892-81.729-49.135
			c-9.243-9.243-48.648-62.269-115.296-62.269s-76.864,52.053-76.864,72.486c0,20.432,13.621,62.756,74.431,62.756
			c60.811,0,85.622-38.433,85.622-38.433s-13.622-13.621-22.379-19.945c-8.756,12.162-31.782,32.594-52.54,32.594
			c-49.134,0-53.026-31.134-53.026-37.944c0-6.812,0.486-46.702,43.297-46.702c42.81,0,75.891,38.918,89.026,53.026
			c13.135,14.107,62.27,59.837,111.891,59.837s95.837-38.918,95.837-78.323s-27.729-87.567-87.081-87.567
			C449.076,72.093,419.401,111.985,403.347,128.525 M50.65,54.093L17.569,234.577h33.567L71.568,122.2L110,234.09h30.162
			l39.892-112.377L198.54,234.09h33.566L200.485,54.579h-32.108l-43.296,125.026L82.757,54.093H50.65z"/>
	</defs>
	<clipPath id="SVGID_5_">
		<use xlink:href="#SVGID_4_"  overflow="visible"/>
	</clipPath>
	
		<linearGradient id="SVGID_6_" gradientUnits="userSpaceOnUse" x1="-50.9995" y1="466" x2="-49.9995" y2="466" gradientTransform="matrix(716.5859 0 0 716.5859 36563.3828 -333783.0625)">
		<stop  offset="0" style="stop-color:#333296"/>
		<stop  offset="0.2796" style="stop-color:#333296"/>
		<stop  offset="0.3506" style="stop-color:#2B429F"/>
		<stop  offset="0.5397" style="stop-color:#1866B5"/>
		<stop  offset="0.7167" style="stop-color:#0B80C5"/>
		<stop  offset="0.8754" style="stop-color:#038FCF"/>
		<stop  offset="1" style="stop-color:#0095D2"/>
	</linearGradient>
	<rect x="17.569" y="54.093" clip-path="url(#SVGID_5_)" fill="url(#SVGID_6_)" width="716.586" height="183.891"/>
</g>
<g>
	<defs>
		<path id="SVGID_7_" d="M231.621,299.28c-5.595,6.566-33.081,28.702-12.892,20.919c20.188-7.784,61.296-54.243,70.296-64.459
			c0,0-5.108-4.378-12.161-8.026C273.945,255.01,237.215,292.713,231.621,299.28"/>
	</defs>
	<clipPath id="SVGID_8_">
		<use xlink:href="#SVGID_7_"  overflow="visible"/>
	</clipPath>
	
		<linearGradient id="SVGID_9_" gradientUnits="userSpaceOnUse" x1="-51" y1="466.04" x2="-50" y2="466.04" gradientTransform="matrix(77.5979 0 0 77.5979 4168.9287 -35875.8555)">
		<stop  offset="0" style="stop-color:#333296"/>
		<stop  offset="0.2796" style="stop-color:#333296"/>
		<stop  offset="0.3506" style="stop-color:#2B429F"/>
		<stop  offset="0.5397" style="stop-color:#1866B5"/>
		<stop  offset="0.7167" style="stop-color:#0B80C5"/>
		<stop  offset="0.8754" style="stop-color:#038FCF"/>
		<stop  offset="1" style="stop-color:#0095D2"/>
	</linearGradient>
	<rect x="198.54" y="247.714" clip-path="url(#SVGID_8_)" fill="url(#SVGID_9_)" width="90.485" height="80.269"/>
</g>
<g>
	<defs>
		<rect id="SVGID_10_" x="-51" y="-129.28" width="841.89" height="595.28"/>
	</defs>
	<clipPath id="SVGID_11_">
		<use xlink:href="#SVGID_10_"  overflow="visible"/>
	</clipPath>
	
		<line clip-path="url(#SVGID_11_)" fill="none" stroke="#333296" stroke-linecap="round" stroke-miterlimit="10" x1="16.596" y1="255.171" x2="243.62" y2="255.171"/>
	
		<line clip-path="url(#SVGID_11_)" fill="none" stroke="#333296" stroke-linecap="round" stroke-miterlimit="10" x1="309.78" y1="255.171" x2="713.235" y2="255.171"/>
</g>
<g>
	<path fill="#1B61B2" d="M382.305,268.893l-1.945,2.688c-3.41-3.205-7.293-4.808-11.648-4.808c-2.841,0-5.496,0.692-7.965,2.078
		c-2.47,1.385-4.4,3.251-5.792,5.599s-2.087,4.87-2.087,7.567c0,2.405,0.536,4.542,1.606,6.408s2.619,3.328,4.644,4.385
		c2.025,1.058,4.342,1.586,6.95,1.586c3.978,0,7.685-1.26,11.123-3.781l1.793,2.558c-2.549,1.667-4.742,2.79-6.578,3.369
		c-1.836,0.58-3.956,0.87-6.359,0.87c-4.444,0-8.064-1.114-10.861-3.344c-3.715-2.986-5.573-6.971-5.573-11.954
		c0-5.143,1.858-9.506,5.573-13.09c3.715-3.584,8.333-5.376,13.855-5.376c2.52,0,4.814,0.396,6.883,1.19
		C377.992,265.633,380.119,266.983,382.305,268.893z"/>
	<path fill="#1B61B2" d="M399.87,272.214c2.025,0,3.883,0.484,5.573,1.453c1.689,0.97,3.008,2.316,3.955,4.043
		s1.421,3.683,1.421,5.868c0,2.491-0.605,4.804-1.814,6.938c-1.209,2.134-2.834,3.784-4.873,4.949
		c-2.04,1.166-4.349,1.749-6.928,1.749c-3.19,0-5.816-1.046-7.878-3.137c-2.062-2.09-3.093-4.753-3.093-7.987
		c0-2.535,0.604-4.873,1.814-7.015c1.209-2.142,2.866-3.821,4.972-5.037C395.124,272.822,397.408,272.214,399.87,272.214z
		 M399.795,275.12c-1.896,0-3.679,0.474-5.35,1.421c-1.67,0.947-2.953,2.247-3.851,3.9c-0.897,1.654-1.346,3.479-1.346,5.475
		c0,2.506,0.773,4.542,2.319,6.108s3.545,2.349,5.995,2.349c1.911,0,3.643-0.455,5.196-1.365s2.79-2.226,3.709-3.944
		c0.918-1.72,1.378-3.562,1.378-5.529c0-1.646-0.343-3.106-1.028-4.382c-0.686-1.274-1.655-2.266-2.91-2.972
		C402.654,275.474,401.283,275.12,399.795,275.12z"/>
	<path fill="#1B61B2" d="M420.608,272.826h3.056l-1.438,9.947c-0.423,2.928-0.634,4.782-0.634,5.564
		c0,1.777,0.557,3.228,1.672,4.351c1.114,1.124,2.586,1.685,4.416,1.685c1.521,0,2.844-0.437,3.965-1.311s1.923-2.018,2.403-3.432
		c0.24-0.713,0.527-2.353,0.861-4.917l1.607-11.888h2.998l-1.153,9.004c-0.552,4.307-1.136,7.365-1.752,9.177
		c-0.616,1.811-1.714,3.299-3.295,4.462c-1.581,1.164-3.508,1.746-5.779,1.746c-2.587,0-4.705-0.842-6.354-2.524
		s-2.474-3.784-2.474-6.305c0-1.006,0.091-2.178,0.271-3.517l0.218-2.1l0.121-0.896L420.608,272.826z"/>
	<path fill="#1B61B2" d="M445.934,272.826h3.064l-0.414,2.992c0.817-1.136,1.802-2.021,2.954-2.654
		c1.152-0.633,2.334-0.95,3.545-0.95c0.86,0,1.758,0.204,2.691,0.612l-1.442,2.797c-0.757-0.306-1.39-0.459-1.898-0.459
		c-1.062,0-2.113,0.372-3.153,1.115s-1.883,1.825-2.53,3.246s-1.195,3.756-1.644,7.005l-1.391,10.072h-2.999L445.934,272.826z"/>
	<path fill="#1B61B2" d="M472.439,275.492l-1.661,2.469c-1.341-1.908-2.931-2.862-4.767-2.862c-1.05,0-1.946,0.343-2.69,1.027
		c-0.743,0.685-1.115,1.442-1.115,2.272c0,0.642,0.227,1.253,0.678,1.836c0.438,0.583,1.435,1.377,2.994,2.382
		c2.272,1.472,3.773,2.754,4.502,3.847c0.714,1.107,1.07,2.382,1.07,3.824c0,1.996-0.695,3.649-2.087,4.961
		c-1.393,1.311-3.203,1.967-5.433,1.967c-2.944,0-5.422-1.304-7.434-3.912l1.857-2.164c1.764,2.143,3.681,3.213,5.751,3.213
		c1.181,0,2.208-0.415,3.083-1.245c0.874-0.831,1.312-1.793,1.312-2.885c0-0.889-0.327-1.741-0.983-2.558
		c-0.423-0.524-1.559-1.413-3.408-2.667c-1.995-1.37-3.307-2.507-3.934-3.41c-0.627-0.889-0.94-1.894-0.94-3.016
		c0-1.762,0.663-3.262,1.989-4.5s3.003-1.857,5.029-1.857c1.194,0,2.276,0.24,3.246,0.722
		C470.468,273.416,471.448,274.269,472.439,275.492z"/>
	<path fill="#1B61B2" d="M500.839,285.326h-21.198c-0.044,2.826,0.692,5.048,2.207,6.665c1.516,1.617,3.533,2.426,6.054,2.426
		c1.675,0,3.227-0.342,4.655-1.027c1.427-0.685,2.607-1.646,3.54-2.884l2.272,1.857c-1.151,1.472-2.655,2.647-4.513,3.529
		c-1.857,0.881-3.864,1.322-6.021,1.322c-3.729,0-6.531-1.155-8.402-3.464c-1.873-2.31-2.809-4.906-2.809-7.791
		c0-2.36,0.63-4.633,1.891-6.818c1.26-2.186,2.946-3.887,5.059-5.103c2.112-1.217,4.4-1.825,6.862-1.825
		c3.045,0,5.565,1.031,7.562,3.093c1.995,2.062,2.994,4.688,2.994,7.878C500.992,283.768,500.94,284.481,500.839,285.326z
		 M498.041,282.66c-0.087-2.237-0.852-4.049-2.294-5.437s-3.257-2.081-5.441-2.081c-2.375,0-4.47,0.668-6.283,2.005
		c-1.813,1.336-3.1,3.174-3.857,5.513H498.041z"/>
	<path fill="#1B61B2" d="M542.768,296.603h-3.082l0.47-3.575c-2.747,2.792-5.891,4.188-9.431,4.188
		c-3.222,0-5.869-1.042-7.944-3.125c-2.074-2.084-3.111-4.765-3.111-8.043c0-3.787,1.353-7.04,4.058-9.757
		c2.705-2.718,5.888-4.076,9.549-4.076c1.982,0,3.722,0.415,5.217,1.243c1.494,0.829,2.752,2.124,3.771,3.884l0.55-4.515h3.17
		L542.768,296.603z M531.066,294.417c1.959,0,3.744-0.463,5.355-1.389s2.888-2.256,3.831-3.991s1.415-3.624,1.415-5.665
		c0-2.459-0.776-4.46-2.329-6.003s-3.57-2.314-6.052-2.314c-2.918,0-5.414,1.057-7.489,3.169c-2.076,2.112-3.113,4.706-3.113,7.78
		c0,2.521,0.776,4.553,2.329,6.097C526.566,293.646,528.584,294.417,531.066,294.417z"/>
	<path fill="#1B61B2" d="M574.122,296.603h-3.082l0.488-3.686c-2.819,2.865-5.992,4.298-9.518,4.298
		c-3.208,0-5.845-1.042-7.91-3.125c-2.066-2.084-3.1-4.765-3.1-8.043c0-3.787,1.348-7.04,4.042-9.757
		c2.694-2.718,5.865-4.076,9.512-4.076c1.976,0,3.708,0.416,5.196,1.246c1.489,0.831,2.77,2.128,3.841,3.892l1.817-13.704h3.171
		L574.122,296.603z M562.414,294.417c1.963,0,3.751-0.462,5.364-1.387c1.614-0.925,2.894-2.254,3.839-3.986s1.417-3.618,1.417-5.657
		c0-2.464-0.777-4.468-2.333-6.014s-3.577-2.318-6.063-2.318c-2.922,0-5.423,1.057-7.502,3.169s-3.118,4.706-3.118,7.78
		c0,2.521,0.777,4.553,2.333,6.097C557.906,293.646,559.927,294.417,562.414,294.417z"/>
	<path fill="#1B61B2" d="M582.247,272.826h3.143l6.003,17.349l9.998-17.349h3.322l-13.702,23.776h-0.568L582.247,272.826z"/>
	<path fill="#1B61B2" d="M610.064,272.826h2.889l-3.105,23.776h-2.999L610.064,272.826z M612.465,263.035
		c0.67,0,1.246,0.24,1.727,0.722c0.481,0.48,0.722,1.057,0.722,1.727c0,0.685-0.24,1.264-0.722,1.737
		c-0.48,0.474-1.057,0.71-1.727,0.71c-0.685,0-1.264-0.236-1.737-0.71s-0.71-1.053-0.71-1.737c0-0.67,0.236-1.246,0.71-1.727
		C611.201,263.275,611.78,263.035,612.465,263.035z"/>
	<path fill="#1B61B2" d="M631.392,275.492l-1.661,2.469c-1.341-1.908-2.931-2.862-4.767-2.862c-1.05,0-1.946,0.343-2.69,1.027
		c-0.743,0.685-1.115,1.442-1.115,2.272c0,0.642,0.227,1.253,0.678,1.836c0.438,0.583,1.435,1.377,2.994,2.382
		c2.272,1.472,3.773,2.754,4.502,3.847c0.714,1.107,1.07,2.382,1.07,3.824c0,1.996-0.695,3.649-2.087,4.961
		c-1.393,1.311-3.203,1.967-5.433,1.967c-2.944,0-5.422-1.304-7.434-3.912l1.857-2.164c1.764,2.143,3.681,3.213,5.751,3.213
		c1.181,0,2.208-0.415,3.083-1.245c0.874-0.831,1.312-1.793,1.312-2.885c0-0.889-0.327-1.741-0.983-2.558
		c-0.423-0.524-1.559-1.413-3.408-2.667c-1.995-1.37-3.307-2.507-3.934-3.41c-0.627-0.889-0.94-1.894-0.94-3.016
		c0-1.762,0.663-3.262,1.989-4.5s3.003-1.857,5.029-1.857c1.194,0,2.276,0.24,3.246,0.722
		C629.42,273.416,630.4,274.269,631.392,275.492z"/>
	<path fill="#1B61B2" d="M649.169,272.214c2.025,0,3.883,0.484,5.573,1.453c1.689,0.97,3.008,2.316,3.955,4.043
		s1.421,3.683,1.421,5.868c0,2.491-0.605,4.804-1.814,6.938c-1.209,2.134-2.834,3.784-4.873,4.949
		c-2.04,1.166-4.349,1.749-6.928,1.749c-3.19,0-5.816-1.046-7.878-3.137c-2.062-2.09-3.093-4.753-3.093-7.987
		c0-2.535,0.604-4.873,1.814-7.015c1.209-2.142,2.866-3.821,4.972-5.037C644.423,272.822,646.707,272.214,649.169,272.214z
		 M649.094,275.12c-1.896,0-3.679,0.474-5.35,1.421c-1.67,0.947-2.953,2.247-3.851,3.9c-0.897,1.654-1.346,3.479-1.346,5.475
		c0,2.506,0.773,4.542,2.319,6.108s3.545,2.349,5.995,2.349c1.911,0,3.643-0.455,5.196-1.365s2.79-2.226,3.709-3.944
		c0.918-1.72,1.378-3.562,1.378-5.529c0-1.646-0.343-3.106-1.028-4.382c-0.686-1.274-1.655-2.266-2.91-2.972
		C651.953,275.474,650.582,275.12,649.094,275.12z"/>
	<path fill="#1B61B2" d="M667.265,272.826h3.064l-0.414,2.992c0.817-1.136,1.802-2.021,2.954-2.654
		c1.152-0.633,2.334-0.95,3.545-0.95c0.86,0,1.758,0.204,2.691,0.612l-1.442,2.797c-0.757-0.306-1.39-0.459-1.898-0.459
		c-1.062,0-2.113,0.372-3.153,1.115s-1.883,1.825-2.53,3.246s-1.195,3.756-1.644,7.005l-1.391,10.072h-2.999L667.265,272.826z"/>
</g>
</svg>
